<?xml version="1.0" encoding="UTF-8" standalone="no"?>
<!-- Created with Inkscape (http://www.inkscape.org/) -->

<svg
   width="201.0079mm"
   height="16.404297mm"
   viewBox="0 0 201.0079 16.404297"
   version="1.1"
   id="svg1"
   xml:space="preserve"
   xmlns="http://www.w3.org/2000/svg"
   xmlns:svg="http://www.w3.org/2000/svg"><defs
     id="defs1" /><g
     id="layer1"
     transform="translate(229.27021,-147.29739)"><g
       id="text1"
       style="opacity:1"
       transform="translate(43.213317,2.9297164)"><path
         style="font-size:15.875px;font-family:Orbitron, 'Courier New', monospace;-inkscape-font-specification:'Orbitron, Courier New, monospace, @wght=500';font-variation-settings:'wght' 500;letter-spacing:5;dominant-baseline:middle;baseline-shift:baseline;text-anchor:middle;display:inline;overflow:visible;fill:#000000;fill-opacity:1;stroke:none;stroke-width:0;stroke-linejoin:round;stroke-dasharray:none;stroke-opacity:1;enable-background:accumulate;stop-color:#000000;stop-opacity:1"
         d="m -210.78226,144.36767 a 0.26460996,0.26460996 0 0 0 -0.26367,0.26367 v 1.71485 a 0.26460996,0.26460996 0 0 0 0.26367,0.26367 h 1.71485 a 0.26460996,0.26460996 0 0 0 0.26367,-0.26367 v -1.71485 a 0.26460996,0.26460996 0 0 0 -0.26367,-0.26367 z m 23.8418,0 a 0.26460996,0.26460996 0 0 0 -0.26367,0.26367 v 10.16016 c 0,0.4251 0.10784,0.82328 0.32422,1.17188 0.21114,0.34017 0.49186,0.62089 0.83203,0.83203 0.3486,0.21637 0.74677,0.32422 1.17187,0.32422 h 1.71485 a 0.26460996,0.26460996 0 0 0 0.26367,-0.26368 v -1.71484 a 0.26460996,0.26460996 0 0 0 -0.26367,-0.26563 h -1.66797 c -0.037,0 -0.0616,-0.0128 -0.0937,-0.0371 -0.0243,-0.0322 -0.0391,-0.0567 -0.0391,-0.0937 v -10.11334 a 0.26460996,0.26460996 0 0 0 -0.26367,-0.26367 z m -35.62305,0.11133 a 0.26460996,0.26460996 0 0 0 -0.26367,0.26367 v 10.04883 c 0,0.42265 0.10061,0.81789 0.30469,1.16602 a 0.26460996,0.26460996 0 0 0 0.004,0.006 c 0.21114,0.34017 0.49187,0.62089 0.83204,0.83203 a 0.26460996,0.26460996 0 0 0 0.004,0.002 c 0.35754,0.21452 0.7585,0.32227 1.1836,0.32227 h 3.42773 a 0.26460996,0.26460996 0 0 0 0.26562,-0.26368 v -1.71484 a 0.26460996,0.26460996 0 0 0 -0.26562,-0.26563 h -3.38086 c -0.037,0 -0.0616,-0.0128 -0.0937,-0.0371 -0.0243,-0.0322 -0.0391,-0.0567 -0.0391,-0.0937 v -5.11719 h 3.51367 a 0.26460996,0.26460996 0 0 0 0.26562,-0.26563 v -1.71289 a 0.26460996,0.26460996 0 0 0 -0.26562,-0.26562 h -3.51367 v -2.64063 a 0.26460996,0.26460996 0 0 0 -0.26367,-0.26367 z m 12.04688,0.41797 h 1.18359 v 1.18555 h -1.18359 z m 23.84179,0 h 1.1836 v 9.84766 c 0,0.16756 0.0677,0.3332 0.17773,0.45898 a 0.26460996,0.26460996 0 0 0 0.0254,0.0254 c 0.12578,0.11006 0.29141,0.17578 0.45899,0.17578 h 1.40234 v 1.18555 h -1.44922 c -0.3369,0 -0.62734,-0.0815 -0.89258,-0.2461 -0.27366,-0.16985 -0.49029,-0.38649 -0.66015,-0.66015 -0.16463,-0.26523 -0.2461,-0.55568 -0.2461,-0.89258 z m -35.625,0.11133 h 1.18555 v 2.64062 a 0.26460996,0.26460996 0 0 0 0.26563,0.26367 h 3.51367 v 1.18555 h -3.51367 a 0.26460996,0.26460996 0 0 0 -0.26563,0.26367 v 5.38282 c 0,0.16757 0.0677,0.3332 0.17774,0.45898 a 0.26460996,0.26460996 0 0 0 0.0254,0.0254 c 0.12578,0.11006 0.29141,0.17578 0.45898,0.17578 h 3.11719 v 1.18555 h -3.16406 c -0.33538,0 -0.63182,-0.0811 -0.90821,-0.2461 l -0.004,-0.002 c -0.27034,-0.16852 -0.48564,-0.38412 -0.6543,-0.6543 -0.15513,-0.26527 -0.23438,-0.55782 -0.23438,-0.89648 z m -47.85546,0.15234 c -0.41514,0 -0.81003,0.11102 -1.16602,0.32422 -5.5e-4,3.3e-4 -10e-4,-3.3e-4 -0.002,0 -0.35303,0.20142 -0.64027,0.48378 -0.85157,0.83594 a 0.26460996,0.26460996 0 0 0 -0.002,0.002 c -0.20407,0.34812 -0.30664,0.74337 -0.30664,1.16601 v 2.44532 c 0,0.42264 0.10239,0.82074 0.30469,1.17773 a 0.26460996,0.26460996 0 0 0 0.006,0.01 c 0.2123,0.34203 0.49837,0.62324 0.84961,0.83398 a 0.26460996,0.26460996 0 0 0 0.006,0.002 c 0.35589,0.20168 0.74885,0.30468 1.16211,0.30468 h 7.25585 c 0.0441,0 0.0525,0.004 0.082,0.0332 0.0251,0.0251 0.0332,0.0393 0.0332,0.0996 v 2.34961 c 0,0.0402 -0.011,0.0647 -0.041,0.10156 -0.0235,0.0223 -0.0345,0.0293 -0.0742,0.0293 h -7.20703 c -0.038,0 -0.0623,-0.0132 -0.0957,-0.0391 -0.0232,-0.0312 -0.0371,-0.0554 -0.0371,-0.0918 v -0.61915 a 0.26460996,0.26460996 0 0 0 -0.26562,-0.26562 h -1.71289 a 0.26460996,0.26460996 0 0 0 -0.26563,0.26562 v 0.66602 c 0,0.42265 0.10239,0.82074 0.30469,1.17773 a 0.26460996,0.26460996 0 0 0 0.006,0.01 c 0.2123,0.34203 0.49837,0.62324 0.84961,0.83398 a 0.26460996,0.26460996 0 0 0 0.006,0.002 c 0.35589,0.20168 0.74885,0.30469 1.16211,0.30469 h 7.30273 c 0.41325,0 0.80621,-0.10301 1.16211,-0.30469 a 0.26460996,0.26460996 0 0 0 0.006,-0.002 c 0.35193,-0.21116 0.63575,-0.49355 0.83789,-0.83789 v -0.002 c 0.21387,-0.35712 0.32226,-0.7572 0.32226,-1.18164 v -2.44531 c 0,-0.42294 -0.10807,-0.81674 -0.32226,-1.16406 -0.20102,-0.35373 -0.48465,-0.63826 -0.83789,-0.83985 -5.6e-4,-3.3e-4 -0.001,3.3e-4 -0.002,0 -0.356,-0.2132 -0.7509,-0.32422 -1.16602,-0.32422 h -7.25391 c -0.0402,0 -0.0647,-0.011 -0.10156,-0.041 -0.0208,-0.0218 -0.0312,-0.0342 -0.0312,-0.0899 v -2.34961 c 0,-0.0441 0.004,-0.0545 0.0332,-0.084 0.0457,-0.0457 0.0643,-0.0488 0.0996,-0.0488 h 7.20703 c 0.0353,0 0.0374,-5.7e-4 0.0703,0.0371 a 0.26460996,0.26460996 0 0 0 0.0117,0.0117 c 0.0295,0.0295 0.0332,0.0399 0.0332,0.084 v 0.61914 a 0.26460996,0.26460996 0 0 0 0.26562,0.26367 h 1.73047 a 0.26460996,0.26460996 0 0 0 0.26367,-0.26367 v -0.66797 c 0,-0.42144 -0.10763,-0.81567 -0.32031,-1.16211 l -0.002,-0.002 c -0.20102,-0.35372 -0.48465,-0.63825 -0.83789,-0.83984 -5.6e-4,-3.3e-4 -10e-4,3.3e-4 -0.002,0 -0.356,-0.2132 -0.7509,-0.32422 -1.16602,-0.32422 z m 106.51757,0 a 0.26460996,0.26460996 0 0 0 -0.26367,0.26563 v 11.42968 a 0.26460996,0.26460996 0 0 0 0.26367,0.26368 h 9.35157 c 0.42264,0 0.82073,-0.10239 1.17773,-0.30469 a 0.26460996,0.26460996 0 0 0 0.006,-0.002 c 0.35153,-0.21091 0.63385,-0.49409 0.83594,-0.83789 0.21452,-0.35753 0.32422,-0.75849 0.32422,-1.18359 v -7.30273 c 0,-0.42295 -0.11003,-0.8187 -0.32422,-1.16602 -0.20093,-0.35258 -0.48352,-0.63677 -0.83594,-0.83789 -5.5e-4,-3.3e-4 -0.001,3.3e-4 -0.002,0 -0.35713,-0.21387 -0.7572,-0.32422 -1.18164,-0.32422 z m 26.74805,0 a 0.26460996,0.26460996 0 0 0 -0.26367,0.26563 v 11.42968 a 0.26460996,0.26460996 0 0 0 0.26367,0.26368 h 10.47852 a 0.26460996,0.26460996 0 0 0 0.26367,-0.26368 v -1.71484 a 0.26460996,0.26460996 0 0 0 -0.26367,-0.26563 h -8.48243 v -2.61328 h 6.76758 a 0.26460996,0.26460996 0 0 0 0.26563,-0.26367 v -1.71484 a 0.26460996,0.26460996 0 0 0 -0.26563,-0.26563 h -6.76758 v -2.61328 h 8.48243 a 0.26460996,0.26460996 0 0 0 0.26367,-0.26562 v -1.71289 a 0.26460996,0.26460996 0 0 0 -0.26367,-0.26563 z m 27.70117,0 c -0.4251,0 -0.82605,0.1097 -1.18359,0.32422 -0.34381,0.20208 -0.62698,0.48441 -0.83789,0.83594 a 0.26460996,0.26460996 0 0 0 0,0.002 c -0.20407,0.34812 -0.30664,0.74337 -0.30664,1.16601 v 7.30274 c 0,0.42265 0.10239,0.82074 0.30468,1.17773 a 0.26460996,0.26460996 0 0 0 0.006,0.01 c 0.21114,0.34017 0.48991,0.62089 0.83008,0.83203 a 0.26460996,0.26460996 0 0 0 0.01,0.004 c 0.35699,0.2023 0.75508,0.30468 1.17773,0.30469 h 9.333985 a 0.26460996,0.26460996 0 0 0 0.265625,-0.26368 v -1.71484 a 0.26460996,0.26460996 0 0 0 -0.265625,-0.26563 h -9.095705 c -0.1089,0 -0.1724,-0.0291 -0.23828,-0.0859 -0.0548,-0.0648 -0.084,-0.12924 -0.084,-0.23633 v -6.82618 c 0,-0.11421 0.0241,-0.16866 0.0801,-0.22461 0.071,-0.0711 0.13348,-0.0977 0.24218,-0.0977 h 9.095705 a 0.26460996,0.26460996 0 0 0 0.265625,-0.26562 v -1.71289 a 0.26460996,0.26460996 0 0 0 -0.265625,-0.26563 z m 24.494142,0 a 0.26460996,0.26460996 0 0 0 -0.265625,0.26563 v 11.42968 a 0.26460996,0.26460996 0 0 0 0.265625,0.26368 h 1.714843 a 0.26460996,0.26460996 0 0 0 0.263672,-0.26368 v -8.40429 l 4.296875,5.09765 a 0.26460996,0.26460996 0 0 0 0.404297,0 l 4.279297,-5.0957 v 8.40234 a 0.26460996,0.26460996 0 0 0 0.263672,0.26368 h 1.730469 a 0.26460996,0.26460996 0 0 0 0.265625,-0.26368 v -11.42968 a 0.26460996,0.26460996 0 0 0 -0.265625,-0.26563 h -2.0625 a 0.26460996,0.26460996 0 0 0 -0.203125,0.0957 l -4.210938,5.02735 -4.226562,-5.0293 a 0.26460996,0.26460996 0 0 0 -0.203125,-0.0937 z m -185.460932,0.5293 h 7.30273 c 0.32506,0 0.61791,0.0809 0.89648,0.24804 a 0.26460996,0.26460996 0 0 0 0.006,0.004 c 0.27807,0.15758 0.48891,0.36842 0.64649,0.64649 a 0.26460996,0.26460996 0 0 0 0.004,0.008 c 0.16463,0.26523 0.2461,0.55567 0.2461,0.89258 v 0.40234 h -1.20117 v -0.35352 c 0,-0.16461 -0.0688,-0.33089 -0.1836,-0.44921 -0.1153,-0.12789 -0.28753,-0.2129 -0.46094,-0.2129 h -7.20703 c -0.17639,0 -0.34901,0.0814 -0.47265,0.20508 -0.11863,0.11863 -0.18946,0.28947 -0.18946,0.45703 v 2.34961 c 0,0.17254 0.0664,0.34958 0.18946,0.47266 a 0.26460996,0.26460996 0 0 0 0.0117,0.0117 c 0.12578,0.11006 0.29336,0.17578 0.46093,0.17578 h 7.25391 c 0.32506,0 0.61791,0.0809 0.89648,0.24805 a 0.26460996,0.26460996 0 0 0 0.006,0.004 c 0.27807,0.15757 0.48891,0.36842 0.64649,0.64649 a 0.26460996,0.26460996 0 0 0 0.004,0.01 c 0.16463,0.26524 0.2461,0.55372 0.2461,0.89063 v 2.44531 c 0,0.3369 -0.0816,0.63465 -0.24805,0.91211 a 0.26460996,0.26460996 0 0 0 0,0.002 c -0.15766,0.26894 -0.37164,0.48275 -0.6543,0.65235 -0.27746,0.15605 -0.57107,0.23242 -0.89648,0.23242 h -7.30273 c -0.32542,0 -0.61708,-0.0764 -0.89454,-0.23242 -0.2821,-0.16926 -0.5016,-0.38474 -0.66992,-0.6543 -0.15548,-0.27648 -0.23437,-0.57496 -0.23437,-0.91211 v -0.40234 h 1.18554 v 0.35547 c 0,0.16756 0.0657,0.3332 0.17579,0.45898 a 0.26460996,0.26460996 0 0 0 0.0254,0.0254 c 0.12578,0.11006 0.29336,0.17578 0.46093,0.17578 h 7.20703 c 0.16758,0 0.33841,-0.0689 0.45704,-0.1875 a 0.26460996,0.26460996 0 0 0 0.0117,-0.0137 c 0.11006,-0.12578 0.17579,-0.29142 0.17579,-0.45898 v -2.34961 c 0,-0.17254 -0.0644,-0.34958 -0.1875,-0.47266 -0.11864,-0.11862 -0.28947,-0.18945 -0.45704,-0.18945 h -7.25585 c -0.32542,0 -0.61708,-0.0764 -0.89454,-0.23243 -0.2821,-0.16926 -0.5016,-0.38473 -0.66992,-0.65429 -0.15548,-0.27648 -0.23437,-0.57496 -0.23437,-0.91211 v -2.44531 c 0,-0.3378 0.0781,-0.6298 0.23242,-0.89454 l 0.002,-0.002 c 0.16827,-0.27956 0.38572,-0.49266 0.66406,-0.65039 a 0.26460996,0.26460996 0 0 0 0.006,-0.004 c 0.27858,-0.16714 0.56947,-0.24804 0.89454,-0.24804 z m 106.7832,0 h 9.08594 c 0.3369,0 0.63464,0.0816 0.91211,0.24804 a 0.26460996,0.26460996 0 0 0 0.004,0.004 c 0.27807,0.15758 0.48892,0.36842 0.64649,0.64649 a 0.26460996,0.26460996 0 0 0 0.006,0.008 c 0.16462,0.26523 0.24609,0.55567 0.24609,0.89258 v 7.30273 c 0,0.3369 -0.0816,0.63465 -0.24805,0.91211 a 0.26460996,0.26460996 0 0 0 -0.002,0.002 c -0.15694,0.26773 -0.36767,0.48116 -0.64844,0.65039 -5.6e-4,3.2e-4 -0.001,-3.1e-4 -0.002,0 -8.5e-4,5.1e-4 -0.001,0.001 -0.002,0.002 -0.27695,0.15611 -0.57429,0.23242 -0.91211,0.23242 h -9.08594 z m 26.74805,0 h 9.94726 v 1.18554 h -8.48242 a 0.26460996,0.26460996 0 0 0 -0.26367,0.26368 v 3.14453 a 0.26460996,0.26460996 0 0 0 0.26367,0.26367 h 6.76953 v 1.18555 h -6.76953 a 0.26460996,0.26460996 0 0 0 -0.26367,0.26562 v 3.14258 a 0.26460996,0.26460996 0 0 0 0.26367,0.26367 h 8.48242 v 1.18555 h -9.94726 z m 27.43554,0 h 9.07031 v 1.18554 h -8.83203 c -0.22996,0 -0.45346,0.0902 -0.61523,0.25196 -0.15572,0.15572 -0.23633,0.37515 -0.23633,0.59961 v 6.82617 c 0,0.22445 0.0778,0.44376 0.22656,0.60742 a 0.26460996,0.26460996 0 0 0 0.0176,0.0176 c 0.16366,0.14879 0.38297,0.22656 0.60742,0.22656 h 8.83203 v 1.18555 h -9.07031 c -0.33647,0 -0.63414,-0.0776 -0.91015,-0.23242 -0.27172,-0.16914 -0.48712,-0.38455 -0.65625,-0.65625 -0.15486,-0.27602 -0.23243,-0.57369 -0.23243,-0.91016 v -7.30273 c 0,-0.3378 0.0781,-0.6298 0.23243,-0.89454 l 0.002,-0.002 c 3.2e-4,-5.4e-4 -3.2e-4,-0.001 0,-0.002 0.16923,-0.28076 0.38265,-0.49344 0.65039,-0.65039 a 0.26460996,0.26460996 0 0 0 0.002,-0.002 c 0.27747,-0.16647 0.57521,-0.24804 0.91211,-0.24804 z m 24.757813,0 h 1.660157 l 4.349609,5.17578 a 0.26460996,0.26460996 0 0 0 0.40625,0 l 4.333984,-5.17578 h 1.675782 v 10.90039 h -1.201172 v -8.86328 a 0.26460996,0.26460996 0 0 0 -0.466797,-0.16993 l -4.544922,5.41016 -4.560547,-5.41016 a 0.26460996,0.26460996 0 0 0 -0.466797,0.16993 v 8.86328 h -1.185547 z m -77.111323,1.18554 c -0.17341,0 -0.34564,0.085 -0.46094,0.21289 -0.11485,0.11833 -0.18359,0.28461 -0.18359,0.44922 v 7.20704 c 0,0.16757 0.0657,0.3332 0.17578,0.45898 a 0.26460996,0.26460996 0 0 0 0.0117,0.0137 c 0.11862,0.11864 0.28945,0.1875 0.45703,0.1875 h 7.22461 c 0.16757,0 0.33645,-0.0689 0.45507,-0.1875 a 0.26460996,0.26460996 0 0 0 0.0137,-0.0137 c 0.11006,-0.12578 0.17578,-0.29141 0.17578,-0.45898 v -7.20704 c 0,-0.16548 -0.0716,-0.33274 -0.1875,-0.45117 -0.11531,-0.12602 -0.28512,-0.21094 -0.45703,-0.21094 z m -92.56446,0.50782 a 0.26460996,0.26460996 0 0 0 -0.26367,0.26562 v 12.85742 a 0.26460996,0.26460996 0 0 0 0.26367,0.26563 h 1.71485 a 0.26460996,0.26460996 0 0 0 0.26562,-0.26563 v -3.38671 h 5.32227 c 0.4236,0 0.82026,-0.10742 1.16797,-0.32227 l 0.002,-0.002 c 0.35121,-0.21125 0.63423,-0.4938 0.83594,-0.83789 0.21419,-0.34732 0.32226,-0.74308 0.32226,-1.16602 v -5.08008 c 0,-0.42294 -0.10807,-0.81869 -0.32226,-1.16601 -0.20148,-0.34369 -0.48335,-0.62477 -0.83399,-0.83594 -0.34859,-0.21637 -0.74678,-0.32617 -1.17187,-0.32617 z m 15.50977,0 a 0.26460996,0.26460996 0 0 0 -0.26367,0.26562 v 1.71289 a 0.26460996,0.26460996 0 0 0 0.26367,0.26563 h 7.25586 c 0.0353,0 0.0374,-5.7e-4 0.0703,0.0371 a 0.26460996,0.26460996 0 0 0 0.0117,0.0117 c 0.0295,0.0295 0.0332,0.0399 0.0332,0.084 v 1.36914 h -7.37109 a 0.26460996,0.26460996 0 0 0 -0.26367,0.26563 v 3.39648 c 0,0.42265 0.10061,0.81789 0.30468,1.16602 a 0.26460996,0.26460996 0 0 0 0.004,0.006 c 0.21114,0.34017 0.49186,0.62089 0.83203,0.83203 a 0.26460996,0.26460996 0 0 0 0.004,0.002 c 0.35754,0.21452 0.75849,0.32227 1.18359,0.32227 h 7.30274 a 0.26460996,0.26460996 0 0 0 0.26367,-0.26368 v -7.14453 c 0,-0.41513 -0.11102,-0.81002 -0.32422,-1.16601 -0.20116,-0.353 -0.4849,-0.63673 -0.83789,-0.83789 -0.34733,-0.2142 -0.74308,-0.32422 -1.16602,-0.32422 z m 27.81445,0 a 0.26460996,0.26460996 0 0 0 -0.26367,0.26562 v 9.20703 a 0.26460996,0.26460996 0 0 0 0.26367,0.26368 h 1.71485 a 0.26460996,0.26460996 0 0 0 0.26367,-0.26368 v -9.20703 a 0.26460996,0.26460996 0 0 0 -0.26367,-0.26562 z m 8.08203,0 a 0.26460996,0.26460996 0 0 0 -0.26367,0.26562 v 1.71289 a 0.26460996,0.26460996 0 0 0 0.26367,0.26563 h 7.25586 c 0.0353,0 0.0373,-5.7e-4 0.0703,0.0371 a 0.26460996,0.26460996 0 0 0 0.0117,0.0117 c 0.0295,0.0295 0.0332,0.0399 0.0332,0.084 v 1.36914 h -7.3711 a 0.26460996,0.26460996 0 0 0 -0.26367,0.26563 v 3.39648 c 0,0.42265 0.10062,0.81789 0.30469,1.16602 a 0.26460996,0.26460996 0 0 0 0.004,0.006 c 0.21114,0.34017 0.49185,0.62089 0.83203,0.83203 a 0.26460996,0.26460996 0 0 0 0.004,0.002 c 0.35754,0.21452 0.7585,0.32227 1.1836,0.32227 h 7.30273 a 0.26460996,0.26460996 0 0 0 0.26367,-0.26368 v -7.14453 c 0,-0.41513 -0.11102,-0.81002 -0.32422,-1.16601 -0.20116,-0.35299 -0.4849,-0.63673 -0.83789,-0.83789 -0.34732,-0.2142 -0.74307,-0.32422 -1.16601,-0.32422 z m 41.15821,0.0215 h 7.22461 c 0.0353,0 0.0373,-5.7e-4 0.0703,0.0371 a 0.26460996,0.26460996 0 0 0 0.0117,0.0117 c 0.0295,0.0295 0.0332,0.0399 0.0332,0.084 v 7.20703 c 0,0.0402 -0.011,0.0647 -0.041,0.10156 -0.0235,0.0223 -0.0345,0.0293 -0.0742,0.0293 h -7.22461 c -0.0398,0 -0.0507,-0.007 -0.0742,-0.0293 -0.03,-0.0369 -0.041,-0.0613 -0.041,-0.10156 v -7.20703 c 0,-0.0441 0.004,-0.0545 0.0332,-0.084 a 0.26460996,0.26460996 0 0 0 0.0117,-0.0117 c 0.033,-0.0377 0.035,-0.0371 0.0703,-0.0371 z m -92.29883,0.50781 h 7.03711 c 0.3369,0 0.62734,0.0815 0.89258,0.24609 a 0.26460996,0.26460996 0 0 0 0.004,0.002 c 0.28265,0.16959 0.49664,0.3834 0.6543,0.65235 a 0.26460996,0.26460996 0 0 0 0.002,0.006 c 0.16463,0.26523 0.2461,0.55567 0.2461,0.89257 v 5.08008 c 0,0.3369 -0.0815,0.62735 -0.2461,0.89258 a 0.26460996,0.26460996 0 0 0 -0.002,0.006 c -0.15766,0.26894 -0.37165,0.48275 -0.6543,0.65234 a 0.26460996,0.26460996 0 0 0 -0.004,0.002 c -0.26524,0.16463 -0.55568,0.2461 -0.89258,0.2461 h -5.58789 a 0.26460996,0.26460996 0 0 0 -0.26367,0.26562 v 3.38672 h -1.18555 z m 15.50976,0 h 7.03711 c 0.33691,0 0.62734,0.0815 0.89258,0.24609 a 0.26460996,0.26460996 0 0 0 0.01,0.006 c 0.27807,0.15757 0.48696,0.36842 0.64453,0.64649 a 0.26460996,0.26460996 0 0 0 0.004,0.006 c 0.16715,0.27857 0.24805,0.56947 0.24805,0.89453 v 6.87891 h -7.03711 c -0.33537,0 -0.63182,-0.0811 -0.9082,-0.2461 l -0.004,-0.002 c -0.27033,-0.16852 -0.48564,-0.38412 -0.65429,-0.6543 -0.15513,-0.26527 -0.23243,-0.55782 -0.23243,-0.89648 v -3.13281 h 7.3711 a 0.26460996,0.26460996 0 0 0 0.26367,-0.26367 v -1.63477 c 0,-0.16462 -0.0687,-0.3309 -0.18359,-0.44922 -0.1153,-0.12789 -0.28753,-0.21289 -0.46094,-0.21289 h -6.99024 z m 27.81446,0 h 1.18359 v 8.67774 h -1.18359 z m 8.08008,0 h 7.03906 c 0.3369,0 0.62734,0.0815 0.89258,0.24609 a 0.26460996,0.26460996 0 0 0 0.008,0.006 c 0.27807,0.15758 0.48891,0.36842 0.64648,0.64649 a 0.26460996,0.26460996 0 0 0 0.004,0.006 c 0.16714,0.27857 0.24805,0.56947 0.24805,0.89453 v 6.87891 h -7.03711 c -0.33538,0 -0.63182,-0.0811 -0.90821,-0.2461 l -0.004,-0.002 c -0.27034,-0.16852 -0.48564,-0.38412 -0.6543,-0.6543 -0.15512,-0.26527 -0.23437,-0.55782 -0.23437,-0.89648 v -3.13281 h 7.37304 a 0.26460996,0.26460996 0 0 0 0.26367,-0.26367 v -1.63477 c 0,-0.16548 -0.0716,-0.33275 -0.1875,-0.45117 -0.11531,-0.12602 -0.28511,-0.21094 -0.45703,-0.21094 h -6.99218 z m -49.5586,1.18555 c -0.17639,0 -0.34901,0.0814 -0.47265,0.20508 -0.11863,0.11863 -0.1875,0.28946 -0.1875,0.45703 v 4.98438 c 0,0.16756 0.0657,0.3332 0.17578,0.45898 a 0.26460996,0.26460996 0 0 0 0.0254,0.0254 c 0.12578,0.11006 0.29141,0.17578 0.45898,0.17578 h 5.14453 c 0.16757,0 0.3384,-0.0689 0.45703,-0.1875 0.12365,-0.12364 0.20508,-0.29627 0.20508,-0.47265 v -4.98438 c 0,-0.16985 -0.0875,-0.33784 -0.21094,-0.45312 -0.11528,-0.12341 -0.28135,-0.20899 -0.45117,-0.20899 z m 0,0.5293 h 5.14453 c 0.0353,0 0.0373,-5.7e-4 0.0703,0.0371 a 0.26460996,0.26460996 0 0 0 0.0254,0.0234 c 0.0377,0.033 0.0371,0.037 0.0371,0.0723 v 4.98438 c 0,0.0353 -0.005,0.052 -0.0508,0.0977 -0.0295,0.0295 -0.0379,0.0332 -0.082,0.0332 h -5.14453 c -0.037,0 -0.0616,-0.0128 -0.0937,-0.0371 -0.0243,-0.0322 -0.0371,-0.0567 -0.0371,-0.0937 v -4.98438 c 0,-0.0441 0.004,-0.0545 0.0332,-0.084 0.0457,-0.0457 0.0624,-0.0488 0.0977,-0.0488 z m 75.16602,1.40625 a 0.26460996,0.26460996 0 0 0 -0.26367,0.26562 v 1.71485 a 0.26460996,0.26460996 0 0 0 0.26367,0.26367 h 6.35156 a 0.26460996,0.26460996 0 0 0 0.26367,-0.26367 v -1.71485 a 0.26460996,0.26460996 0 0 0 -0.26367,-0.26562 z m 0.26562,0.52929 h 5.82031 v 1.18555 h -5.82031 z m -60.31836,1.16993 a 0.26460996,0.26460996 0 0 0 -0.26562,0.26562 v 1.7461 c 0,0.16757 0.0677,0.3332 0.17773,0.45898 a 0.26460996,0.26460996 0 0 0 0.0254,0.0254 c 0.12578,0.11006 0.29141,0.17578 0.45899,0.17578 h 5.52539 a 0.26460996,0.26460996 0 0 0 0.26367,-0.26367 v -2.14258 a 0.26460996,0.26460996 0 0 0 -0.26367,-0.26562 z m 35.89649,0 a 0.26460996,0.26460996 0 0 0 -0.26563,0.26562 v 1.7461 c 0,0.16756 0.0677,0.3332 0.17774,0.45898 a 0.26460996,0.26460996 0 0 0 0.0254,0.0254 c 0.12578,0.11006 0.29141,0.17578 0.45898,0.17578 h 5.52539 a 0.26460996,0.26460996 0 0 0 0.26367,-0.26367 v -2.14258 a 0.26460996,0.26460996 0 0 0 -0.26367,-0.26562 z m -35.63282,0.52929 h 5.39258 v 1.61328 h -5.25976 c -0.037,0 -0.0616,-0.0128 -0.0937,-0.0371 -0.0243,-0.0322 -0.0391,-0.0567 -0.0391,-0.0937 z m 35.89649,0 h 5.39258 v 1.61328 h -5.25977 c -0.037,0 -0.0616,-0.0128 -0.0937,-0.0371 -0.0243,-0.0322 -0.0391,-0.0567 -0.0391,-0.0937 z m 55.26172,1.61328 a 0.26460996,0.26460996 0 0 0 -0.26563,0.26563 v 1.71484 a 0.26460996,0.26460996 0 0 0 0.26563,0.26368 h 1.71289 a 0.26460996,0.26460996 0 0 0 0.26562,-0.26368 v -1.71484 a 0.26460996,0.26460996 0 0 0 -0.26562,-0.26563 z m 25.66797,0 a 0.26460996,0.26460996 0 0 0 -0.26563,0.26563 v 1.71484 a 0.26460996,0.26460996 0 0 0 0.26563,0.26368 h 1.71484 a 0.26460996,0.26460996 0 0 0 0.26367,-0.26368 v -1.71484 a 0.26460996,0.26460996 0 0 0 -0.26367,-0.26563 z m 26.556636,0 a 0.26460996,0.26460996 0 0 0 -0.263672,0.26563 v 1.71484 a 0.26460996,0.26460996 0 0 0 0.263672,0.26368 h 1.714844 a 0.26460996,0.26460996 0 0 0 0.265625,-0.26368 v -1.71484 a 0.26460996,0.26460996 0 0 0 -0.265625,-0.26563 z m -51.960936,0.5293 h 1.18555 v 1.18555 h -1.18555 z m 25.66797,0 h 1.18554 v 1.18555 h -1.18554 z m 26.558591,0 h 1.185547 v 1.18555 h -1.185547 z"
         id="path2" /></g></g></svg>
